<?xml version="1.0" standalone="no"?>
<!DOCTYPE svg PUBLIC "-//W3C//DTD SVG 20010904//EN"
 "http://www.w3.org/TR/2001/REC-SVG-20010904/DTD/svg10.dtd">
<svg version="1.0" xmlns="http://www.w3.org/2000/svg"
 width="96.000000pt" height="96.000000pt" viewBox="0 0 96.000000 96.000000"
 preserveAspectRatio="xMidYMid meet">

<g transform="translate(0.000000,96.000000) scale(0.100000,-0.100000)"
fill="#000000" stroke="none">
<path d="M0 480 l0 -160 480 0 480 0 0 160 0 160 -480 0 -480 0 0 -160z m530
99 c32 -20 33 -22 16 -35 -15 -11 -22 -10 -42 3 -51 33 -107 -13 -85 -70 13
-35 53 -45 87 -22 18 11 29 14 36 7 18 -18 1 -40 -40 -53 -89 -26 -162 60
-118 140 29 52 89 64 146 30z m-358 -6 c25 -23 23 -60 -6 -86 l-25 -22 26 -27
27 -28 -29 0 c-20 0 -37 10 -56 33 l-28 32 -1 -32 c0 -26 -4 -33 -20 -33 -19
0 -20 7 -20 90 l0 90 57 0 c38 0 62 -5 75 -17z m178 2 c0 -11 -12 -15 -45 -15
-38 0 -45 -3 -45 -20 0 -17 7 -20 45 -20 38 0 45 -3 45 -20 0 -17 -7 -20 -45
-20 -33 0 -45 -4 -45 -15 0 -11 12 -15 45 -15 38 0 45 -3 45 -20 0 -18 -7 -20
-70 -20 l-70 0 0 90 0 90 70 0 c56 0 70 -3 70 -15z m365 -62 c16 -43 30 -84
33 -90 3 -8 -5 -13 -22 -13 -16 0 -26 6 -26 15 0 11 -11 15 -39 15 -25 0 -41
-5 -45 -15 -4 -12 -46 -23 -46 -12 0 4 46 136 55 160 4 10 18 17 35 17 25 0
30 -6 55 -77z m189 55 c21 -30 20 -50 -5 -82 -15 -19 -30 -26 -55 -26 -30 0
-34 -3 -34 -25 0 -18 -5 -25 -20 -25 -19 0 -20 7 -20 90 l0 90 59 0 c51 0 62
-3 75 -22z m-484 -198 c0 -5 -5 -10 -11 -10 -5 0 -7 5 -4 10 3 6 8 10 11 10 2
0 4 -4 4 -10z m160 0 c0 -5 -4 -10 -10 -10 -5 0 -10 5 -10 10 0 6 5 10 10 10
6 0 10 -4 10 -10z"/>
<path d="M80 535 c0 -21 5 -25 30 -25 23 0 30 5 30 19 0 19 -18 31 -46 31 -8
0 -14 -10 -14 -25z"/>
<path d="M646 518 c-9 -35 -8 -38 15 -38 16 0 19 4 14 23 -11 35 -22 41 -29
15z"/>
<path d="M810 530 c0 -27 3 -30 30 -30 25 0 30 4 30 24 0 23 -16 36 -46 36 -9
0 -14 -11 -14 -30z"/>
</g>
</svg>
